<svg id="Layer_1" data-name="Layer 1" xmlns="http://www.w3.org/2000/svg" viewBox="0 0 400 400"><defs><style>.cls-1{fill:#66bb6a;}</style></defs><title>_</title><circle class="cls-1" cx="267.131" cy="235.513" r="9.811" transform="translate(-88.292 257.871) rotate(-45)"/><rect class="cls-1" x="163.093" y="188.62" width="43.604" height="8.33" transform="translate(-82.165 187.206) rotate(-45)"/><path class="cls-1" d="M78.249,75.517A8.451,8.451,0,0,0,67.267,85.934l8.885,28.94L162.3,201.022l30.833-30.833L110.114,87.171Z"/><path class="cls-1" d="M315.725,260.788a51.932,51.932,0,0,0-76.758-69.8l-12.621,12.621-.081-.472-18.5-18.5-30.925,30.925,18.776,18.776,3.866,3.866,65.669,65.669,3.912,3.912L286.275,325l46.83-46.83Zm-70.777-2.332a31.629,31.629,0,1,1,44.73,0A31.632,31.632,0,0,1,244.948,258.456Zm41.429,50.977-9.48-9.48,32.2-32.2,9.48,9.48Z"/></svg>