<svg id="Layer_1" data-name="Layer 1" xmlns="http://www.w3.org/2000/svg" viewBox="0 0 400 400"><defs><style>.cls-1{fill:#66bb6a;}</style></defs><title>_</title><path class="cls-1" d="M82.5,237.251a29.5,29.5,0,1,0,29.5,29.5A29.5,29.5,0,0,0,82.5,237.251Zm0,41.75a12.25,12.25,0,1,1,12.25-12.25A12.244,12.244,0,0,1,82.5,279Z"/><path class="cls-1" d="M253.75,237.251a29.5,29.5,0,1,0,29.5,29.5A29.5,29.5,0,0,0,253.75,237.251Zm0,41.75A12.25,12.25,0,1,1,266,266.751,12.244,12.244,0,0,1,253.75,279Z"/><path class="cls-1" d="M116.667,248.082s9,16,2.333,33.167h98.5s-6.167-22.333,3.833-33.167Z"/><path class="cls-1" d="M207.42,240.5a6.833,6.833,0,0,0,6.83-6.83v-30.09a6.833,6.833,0,0,0-6.83-6.83H118.83a6.833,6.833,0,0,0-6.83,6.83v30.09a6.833,6.833,0,0,0,6.83,6.83ZM120,205.871h29.5v5.84H120Zm0,10h29.5v5.84H120Zm0,9.67h29.5v5.83H120Z"/><path class="cls-1" d="M322.8,226.645,281,240.5c17.333,10.75,9,39.25,9,39.25h57V244.12A18.409,18.409,0,0,0,322.8,226.645Z"/><polygon class="cls-1" points="221.333 237.249 240.5 231.369 347 121.749 347 103.749 221.333 237.249"/></svg>