<svg id="Layer_1" data-name="Layer 1" xmlns="http://www.w3.org/2000/svg" viewBox="0 0 400 400"><defs><style>.cls-1{fill:#66bb6a;}</style></defs><title>_</title><polygon class="cls-1" points="109.945 78.996 96.948 79.281 103.206 68.141 109.945 78.996"/><polygon class="cls-1" points="75.435 113.507 75.719 100.51 64.58 106.768 75.435 113.507"/><polygon class="cls-1" points="88.75 82.194 79.761 91.586 76.309 79.284 88.75 82.194"/><path class="cls-1" d="M88.285,90.92h0a23.167,23.167,0,0,0,0,32.763l97.7,97.7,32.763-32.763-97.7-97.7A23.167,23.167,0,0,0,88.285,90.92Z"/><polygon class="cls-1" points="224.403 170.941 212.029 174.123 221.221 183.315 224.403 170.941"/><polygon class="cls-1" points="209.926 156.464 197.552 159.646 206.744 168.838 209.926 156.464"/><polygon class="cls-1" points="194.187 140.724 181.812 143.906 191.005 153.099 194.187 140.724"/><polygon class="cls-1" points="176.755 123.292 164.38 126.474 173.573 135.667 176.755 123.292"/><polygon class="cls-1" points="162.278 108.815 149.903 111.997 159.096 121.189 162.278 108.815"/><polygon class="cls-1" points="146.538 93.076 134.164 96.257 143.356 105.45 146.538 93.076"/><polygon class="cls-1" points="131.036 77.573 118.661 80.755 127.854 89.948 131.036 77.573"/><polygon class="cls-1" points="167.379 227.965 179.754 224.783 170.561 215.591 167.379 227.965"/><polygon class="cls-1" points="152.902 213.488 165.277 210.306 156.084 201.113 152.902 213.488"/><polygon class="cls-1" points="137.163 197.748 149.537 194.566 140.345 185.374 137.163 197.748"/><polygon class="cls-1" points="119.731 180.316 132.105 177.134 122.913 167.942 119.731 180.316"/><polygon class="cls-1" points="105.253 165.839 117.628 162.657 108.435 153.465 105.253 165.839"/><polygon class="cls-1" points="89.514 150.1 101.888 146.918 92.696 137.725 89.514 150.1"/><polygon class="cls-1" points="74.012 134.597 86.386 131.415 77.194 122.223 74.012 134.597"/><path class="cls-1" d="M329.388,297.152l-4.518-47.3,10.55-10.55-72.45-72.45a9.538,9.538,0,0,0-13.492,0l-64.905,64.905L255.93,303.11h0L275.4,322.587a31.707,31.707,0,0,0,53.984-25.435Zm-90.672-43.3a5.75,5.75,0,0,1-8.132-8.132l22.458-22.458a5.75,5.75,0,0,1,8.132,8.132Zm12.318,12.318a5.75,5.75,0,0,1-8.132-8.132l22.458-22.458a5.75,5.75,0,0,1,8.132,8.132Zm12.848,12.848a5.75,5.75,0,0,1-8.132-8.132l22.458-22.458a5.75,5.75,0,0,1,8.132,8.132ZM284.6,313.394,272.96,301.758l39.989-39.989,3.5,36.619a18.707,18.707,0,0,1-31.85,15.007Z"/></svg>