<svg xmlns="http://www.w3.org/2000/svg" height="511pt" version="1.1" viewBox="-7 0 511 511.99888" width="511pt">
<g id="surface1">
<path d="M 258.527344 314.175781 L 229.703125 334.757812 L 345.609375 497.082031 C 351.292969 505.042969 362.355469 506.886719 370.316406 501.203125 C 378.273438 495.519531 380.121094 484.457031 374.4375 476.5 Z M 258.527344 314.175781 " fill="#66bb6a" />
<path d="M 258.527344 314.175781 L 229.703125 334.757812 L 345.609375 497.082031 C 351.292969 505.042969 362.355469 506.886719 370.316406 501.203125 C 378.273438 495.519531 380.121094 484.457031 374.4375 476.5 Z M 258.527344 314.175781 " fill="#66bb6a" />
<path d="M 170.117188 207.875 L 186.636719 231.007812 L 174.265625 239.84375 L 169.183594 243.46875 L 232.792969 332.550781 L 255.828125 316.101562 L 229.863281 279.738281 L 251.078125 264.589844 L 241.746094 251.523438 C 234.40625 256.765625 224.207031 255.0625 218.964844 247.722656 C 213.722656 240.382812 215.421875 230.179688 222.765625 224.9375 L 217.277344 217.253906 L 213.433594 211.871094 L 196.917969 188.738281 Z M 170.117188 207.875 " fill="#66bb6a" />
<path d="M 250.722656 314.621094 L 187.113281 225.539062 L 192.195312 221.910156 L 204.566406 213.078125 L 190.472656 193.339844 L 170.117188 207.875 L 186.636719 231.007812 L 174.265625 239.839844 L 169.183594 243.46875 L 232.792969 332.550781 L 255.832031 316.101562 L 253.40625 312.707031 Z M 250.722656 314.621094 " fill="#66bb6a" />
<path d="M 247.785156 261.808594 L 248.644531 261.195312 L 251.070312 264.589844 L 250.207031 265.203125 Z M 247.785156 261.808594 " fill="#66bb6a" />
<path d="M 303.46875 271.457031 L 325.488281 243.714844 L 483.03125 366.988281 C 490.769531 373.046875 492.097656 384.246094 485.988281 391.945312 C 479.9375 399.570312 468.867188 400.882812 461.203125 394.882812 Z M 303.46875 271.457031 " fill="#66bb6a" />
<path d="M 12.355469 31.386719 C 3.21875 42.898438 3.746094 58.527344 65.203125 107.296875 L 183.324219 201.039062 L 199.867188 180.191406 Z M 12.355469 31.386719 " fill="#66bb6a" />
<path d="M 323.125 246.691406 L 305.53125 268.859375 L 270.53125 241.085938 L 254.324219 261.5 L 241.746094 251.519531 C 247.355469 244.460938 246.167969 234.183594 239.109375 228.574219 C 233.277344 223.949219 225.257812 223.941406 219.492188 228.0625 C 218.265625 228.933594 217.140625 229.984375 216.160156 231.222656 L 208.761719 225.339844 L 203.589844 221.234375 L 181.316406 203.5625 L 183.320312 201.035156 L 188.066406 195.070312 L 188.058594 195.0625 L 193.015625 188.824219 L 199.867188 180.195312 L 199.863281 180.1875 L 201.785156 177.765625 L 224.054688 195.445312 L 233.507812 183.535156 L 237.390625 178.640625 Z M 323.125 246.691406 " fill="#66bb6a" />
<path d="M 106.660156 67.886719 L 169.835938 156.363281 L 193.011719 188.828125 L 188.054688 195.0625 L 181.601562 199.671875 L 172.636719 206.078125 L 150.355469 174.878906 L 94.375 96.480469 L 33.527344 11.257812 C 45.488281 2.71875 61.070312 4.042969 106.660156 67.886719 Z M 106.660156 67.886719 " fill="#66bb6a" />
<path d="M 392.289062 350.492188 L 456.574219 400.796875 C 461.164062 404.390625 466.636719 406.128906 472.078125 406.128906 C 479.523438 406.128906 486.90625 402.863281 491.867188 396.613281 C 496.074219 391.3125 497.953125 384.691406 497.15625 377.96875 C 496.359375 371.246094 492.988281 365.246094 487.65625 361.078125 L 330.113281 237.800781 C 327.929688 236.089844 325.089844 235.789062 322.683594 236.753906 L 242.050781 172.761719 C 238.800781 170.183594 234.078125 170.726562 231.503906 173.976562 L 222.839844 184.894531 L 206.453125 171.890625 C 204.894531 170.652344 202.90625 170.085938 200.925781 170.3125 C 200.539062 170.359375 200.15625 170.441406 199.785156 170.542969 L 175.320312 151.128906 L 112.769531 63.527344 C 105.757812 53.707031 99.195312 45.003906 93.261719 37.664062 C 90.652344 34.4375 85.925781 33.9375 82.703125 36.542969 C 82.679688 36.558594 82.664062 36.582031 82.640625 36.597656 C 79.472656 39.214844 78.992188 43.898438 81.582031 47.101562 C 87.328125 54.210938 93.710938 62.671875 100.550781 72.25 L 182.886719 187.5625 L 174.007812 195.078125 L 45.59375 15.242188 C 49.191406 15.875 54.242188 18.515625 61.730469 25.34375 C 64.734375 28.085938 69.363281 27.921875 72.175781 25.019531 C 72.226562 24.964844 72.28125 24.914062 72.335938 24.859375 C 75.128906 21.796875 74.914062 17.046875 71.847656 14.253906 C 55.019531 -1.105469 41.855469 -3.910156 29.164062 5.152344 C 25.789062 7.5625 25.007812 12.25 27.417969 15.625 L 57.289062 57.460938 L 17.023438 25.503906 C 15.460938 24.269531 13.476562 23.699219 11.496094 23.925781 C 9.519531 24.15625 7.710938 25.160156 6.472656 26.71875 C -9.183594 46.453125 4.960938 69.078125 60.535156 113.179688 L 144.859375 180.101562 L 163.003906 205.507812 C 162.878906 205.875 162.777344 206.25 162.714844 206.636719 C 162.386719 208.601562 162.851562 210.617188 164.007812 212.234375 L 176.164062 229.257812 L 164.820312 237.359375 C 161.445312 239.769531 160.664062 244.457031 163.074219 247.832031 L 222.890625 331.605469 C 221.796875 333.972656 221.964844 336.84375 223.589844 339.121094 L 339.5 501.445312 C 344.414062 508.328125 352.179688 512 360.054688 512 C 365.125 512 370.246094 510.476562 374.675781 507.3125 C 385.992188 499.230469 388.625 483.449219 380.542969 472.132812 L 264.640625 309.8125 C 263.132812 307.703125 260.734375 306.605469 258.320312 306.671875 L 240.335938 281.484375 L 255.441406 270.699219 C 256.355469 270.046875 257.09375 269.199219 257.628906 268.238281 C 258.601562 267.761719 259.488281 267.074219 260.207031 266.171875 L 271.742188 251.632812 L 295.984375 270.871094 C 295.949219 271.359375 295.957031 271.851562 296.015625 272.34375 C 296.25 274.328125 297.269531 276.140625 298.84375 277.371094 L 368.898438 332.1875 C 372.164062 334.742188 376.878906 334.167969 379.4375 330.902344 C 381.992188 327.636719 381.414062 322.917969 378.148438 320.363281 L 314.050781 270.207031 L 326.734375 254.222656 L 478.402344 372.902344 C 480.558594 374.589844 481.925781 377.019531 482.246094 379.738281 C 482.570312 382.457031 481.808594 385.136719 480.105469 387.28125 C 476.636719 391.65625 470.230469 392.417969 465.828125 388.972656 L 401.539062 338.667969 C 398.273438 336.113281 393.554688 336.691406 391 339.953125 C 388.445312 343.21875 389.023438 347.9375 392.289062 350.492188 Z M 370.085938 488.46875 C 369.636719 491.15625 368.167969 493.511719 365.953125 495.09375 C 363.734375 496.675781 361.03125 497.304688 358.34375 496.851562 C 355.65625 496.40625 353.304688 494.9375 351.71875 492.71875 L 240.175781 336.507812 L 256.78125 324.648438 L 368.328125 480.859375 C 369.910156 483.078125 370.535156 485.78125 370.085938 488.46875 Z M 223.265625 276.171875 C 222.875 276.894531 222.597656 277.675781 222.457031 278.5 C 222.132812 280.464844 222.597656 282.480469 223.753906 284.101562 L 245.355469 314.355469 L 234.539062 322.078125 L 179.65625 245.21875 L 191 237.117188 C 192.023438 236.386719 192.832031 235.417969 193.375 234.3125 C 193.695312 233.664062 193.921875 232.96875 194.042969 232.242188 C 194.371094 230.277344 193.90625 228.265625 192.746094 226.644531 L 190.324219 223.25 L 185.457031 216.4375 L 192.28125 221.851562 L 208.664062 234.851562 C 207.789062 240.953125 209.261719 247.050781 212.855469 252.082031 C 216.554688 257.265625 222.054688 260.699219 228.335938 261.746094 C 232.058594 262.367188 235.796875 262.105469 239.304688 261.019531 L 240.605469 262.84375 L 225.5 273.625 C 224.5625 274.296875 223.804688 275.175781 223.265625 276.171875 Z M 234.441406 234.457031 C 236.289062 235.921875 237.453125 238.019531 237.722656 240.359375 C 237.949219 242.34375 237.507812 244.300781 236.476562 245.976562 C 234.75 246.917969 232.777344 247.265625 230.804688 246.9375 C 228.480469 246.546875 226.445312 245.277344 225.074219 243.359375 C 223.703125 241.441406 223.164062 239.105469 223.550781 236.777344 C 223.742188 235.640625 224.144531 234.574219 224.730469 233.621094 C 227.746094 231.980469 231.585938 232.191406 234.441406 234.457031 Z M 264.648438 236.417969 L 253.109375 250.957031 L 251.355469 249.5625 C 252.621094 246.117188 253.070312 242.398438 252.640625 238.644531 C 251.910156 232.316406 248.761719 226.652344 243.777344 222.695312 C 238.789062 218.738281 232.558594 216.960938 226.230469 217.6875 C 222.476562 218.117188 218.957031 219.402344 215.886719 221.414062 L 191.867188 202.351562 L 203 188.320312 L 219.386719 201.324219 C 220.945312 202.5625 222.933594 203.128906 224.914062 202.902344 C 226.890625 202.671875 228.699219 201.671875 229.9375 200.109375 L 238.601562 189.191406 L 312.582031 247.902344 L 304.320312 258.3125 L 275.199219 235.203125 C 273.816406 234.109375 272.171875 233.578125 270.535156 233.578125 C 268.324219 233.578125 266.128906 234.550781 264.648438 236.417969 Z M 113.273438 135.863281 L 69.867188 101.417969 C 27.027344 67.417969 16.734375 51.753906 15.757812 43.671875 L 88.878906 101.699219 Z M 113.273438 135.863281 " fill="#66bb6a" />
</g>
</svg>