<svg id="Layer_1" data-name="Layer 1" xmlns="http://www.w3.org/2000/svg" viewBox="0 0 400 400"><defs><style>.cls-1{fill:#66bb6a;}</style></defs><title>_</title><circle class="cls-1" cx="100.863" cy="320.05" r="4.384"/><path class="cls-1" d="M259.467,86.987A32.218,32.218,0,0,0,202.641,107.8q0,.56.034,1.12Z"/><path class="cls-1" d="M234.871,140.025a32.228,32.228,0,0,0,30.488-42.679l-60.139,23.1A32.234,32.234,0,0,0,234.871,140.025Z"/><path class="cls-1" d="M334.876,203.771,324.5,161.209A18.956,18.956,0,0,0,301.938,147.2l-.611.137a18.956,18.956,0,0,0-14.206,23.25l10.989,42.425a18.953,18.953,0,0,0,19.872,14.135l2.153,8.463a14.448,14.448,0,0,1-13.352,18l-6.695.3-21.979-85.675a22.393,22.393,0,0,0-43.968,7.4l.791,18.45a28.611,28.611,0,0,1-13.76,10.834l-27.781,10.277a11.322,11.322,0,0,0,7.664,21.307l34.417-11.269c.267-.087.52-.2.783-.3l2.008,46.839,65.779-2.45-1.944-7.579,5.041-.227a22.363,22.363,0,0,0,20.668-27.855l-2.231-8.772A18.965,18.965,0,0,0,334.876,203.771Z"/><path class="cls-1" d="M207.8,166.6h4.828l-19.481-40.984,7.8-3.12s-3.2-6.6-3.77-10.743l-17.985,7.282,17.926,40.6A11.681,11.681,0,0,0,207.8,166.6Z"/><polygon class="cls-1" points="100.863 284.021 106.518 291.183 183.763 240.996 177.903 233.276 100.863 284.021"/><circle class="cls-1" cx="87.031" cy="285.526" r="4.384"/><circle class="cls-1" cx="68.964" cy="289.91" r="4.384"/><circle class="cls-1" cx="92.767" cy="298.475" r="4.384"/><circle class="cls-1" cx="80.325" cy="308.081" r="4.384"/><circle class="cls-1" cx="107.199" cy="303.696" r="4.384"/></svg>