<svg id="Layer_1" data-name="Layer 1" xmlns="http://www.w3.org/2000/svg" viewBox="0 0 400 400"><defs><style>.cls-1{fill:#66bb6a;}</style></defs><title>_</title><path class="cls-1" d="M239.059,278.62l43.809,43.809a6.8,6.8,0,0,0,9.61,0l43.809-43.809a6.8,6.8,0,0,0,0-9.61L292.477,225.2a6.8,6.8,0,0,0-9.61,0L239.059,269.01A6.8,6.8,0,0,0,239.059,278.62ZM293.2,268.207a2.992,2.992,0,0,1,.876-2.12L305.761,254.4a3,3,0,0,1,4.24,4.24l-11.684,11.684a3,3,0,0,1-5.116-2.12Zm6.642,6.642a2.992,2.992,0,0,1,.876-2.12L312.4,261.045a3,3,0,0,1,4.24,4.24l-11.684,11.684a3,3,0,0,1-5.116-2.12Zm7.066,7.066a2.992,2.992,0,0,1,.876-2.12l11.684-11.684a3,3,0,0,1,4.24,4.24l-11.684,11.684a3,3,0,0,1-5.116-2.12Z"/><circle class="cls-1" cx="110.317" cy="96.46" r="6.495" transform="translate(-35.897 106.259) rotate(-45)"/><path class="cls-1" d="M157.863,129.5l-6.668-9.473c-2.46,1.554-5,3.032-7.588,4.44l-23.187-23.187a11.216,11.216,0,0,1-5.28,5.28l21.48,21.48c-35.681,17.155-77.94,22.082-77.94,22.082,12.966,10.94,28.944,14.307,28.944,14.307s-.155-12.523,18.813-15.507c11.111-1.748,26.848-8.111,37.982-13.084l98.5,98.5-3.931,3.931a9.493,9.493,0,0,0,0,13.425l4.734,4.734,26.568-26.568-4.734-4.734a9.493,9.493,0,0,0-13.425,0l-3.932,3.932-96.546-96.546C155.488,130.7,157.863,129.5,157.863,129.5Z"/><polygon class="cls-1" points="87.907 114.911 83.77 101.985 98.275 98.794 97.224 91.902 81.557 95.073 76.616 79.634 66.465 82.883 77.755 118.16 87.907 114.911"/><path class="cls-1" d="M74.446,131.37,66.808,107.5a6.071,6.071,0,0,0,.846-.2l1.84-.589L65.8,95.17l-1.84.589a6.088,6.088,0,0,0-.8.329L55.528,72.26l-1.973,4.653,8.087,20.222a6.052,6.052,0,0,0,3.33,10.4l5.166,21.2Z"/></svg>