<?xml version="1.0" encoding="utf-8"?>
<!-- Svg Vector Icons : http://www.onlinewebfonts.com/icon -->
<!DOCTYPE svg PUBLIC "-//W3C//DTD SVG 1.1//EN" "http://www.w3.org/Graphics/SVG/1.1/DTD/svg11.dtd">
<svg version="1.1" xmlns="http://www.w3.org/2000/svg" xmlns:xlink="http://www.w3.org/1999/xlink" x="0px" y="0px" viewBox="0 0 1000 1000" enable-background="new 0 0 1000 1000" xml:space="preserve">
<metadata> Svg Vector Icons : http://www.onlinewebfonts.com/icon </metadata>
<g><g transform="translate(0.000000,511.000000) scale(0.100000,-0.100000)"><path d="M4694.5,2714c-314.6-91.9-701.6-323-1141.5-676.6c-33.4-27.8,247.8-33.4,1336.4-33.4h1378.2l-97.4,80.7C5554.8,2605.4,5050.8,2819.8,4694.5,2714z" fill='#66bb6a'/><path d="M2230.5,2494.1c-169.8-58.5-370.3-167.1-598.6-331.3l-208.8-147.6l495.6-8.3c270.1-2.8,715.5-2.8,985.6,0l495.6,8.3l-194.9,147.6C2809.6,2460.7,2475.5,2574.8,2230.5,2494.1z" fill='#66bb6a'/><path d="M8815,1889.9c-39-39-91.9-55.7-178.2-55.7h-122.5l-428.8-459.4l-426-462.2l-439.9,448.3L6777,1806.4H3658.7c-2143.8,0-3135-8.3-3171.2-30.6c-78-39-114.2-150.3-78-228.3c13.9-33.4,189.3-175.4,387-311.8l359.2-250.6l2.8-409.3V163.7l-75.2-13.9c-456.6-97.4-824.1-426-943.8-843.6C70-927.7,95-1306.3,192.5-1517.9C342.8-1846.4,599-2072,933.1-2175c684.9-214.4,1400.4,222.7,1531.3,929.9c16.7,91.9,41.8,175.4,58.5,183.8c13.9,8.3,311.8,39,659.9,66.8c350.8,25.1,673.8,52.9,718.3,61.3c83.5,13.9,89.1,2.8,459.4-604.2c206-339.6,428.8-671,492.8-735c169.8-172.6,342.4-247.8,565.2-247.8c211.6-2.8,350.8,55.7,504,208.8c167.1,167,236.7,353.6,367.5,991.2l122.5,587.5l206,225.5C8007.6,999,8617.4,1639.3,8673.1,1656c41.8,11.1,97.4,2.8,153.1-27.8c77.9-41.8,122.5-41.8,540.1-5.6c256.1,22.3,470.5,52.9,492.8,72.4c50.1,41.8,55.7,128.1,8.3,155.9c-30.6,19.5-726.7,91.9-904.9,94.7C8906.9,1945.6,8848.4,1923.3,8815,1889.9z M7197.4,1071.4L7512.1,754l-548.5-587.5c-303.5-325.8-554-584.7-562.4-579.1c-16.7,16.7,442.7,1801.4,462.2,1801.4C6874.5,1388.8,7022,1246.8,7197.4,1071.4z M2926.5-267.8C3294-524,3605.9-743.9,3617-755c11.1-11.2-181-33.4-431.5-52.9c-250.6-16.7-512.3-39-581.9-50.1C2475.5-872,2475.5-872,2456-780.1c-8.4,52.9-50.1,164.3-89.1,247.8c-167,361.9-459.4,587.4-879.8,679.3l-78,16.7v320.2v320.2l426-300.7C2066.2,339.1,2559-8.9,2926.5-267.8z M1470.4-404.2c529-158.7,637.6-871.4,181-1177.7c-437.1-292.3-1024.6,19.5-1021.8,545.7c2.8,228.3,86.3,395.4,278.4,537.4C1077.8-370.8,1261.6-340.2,1470.4-404.2z M6225.8-810.7c0-91.9-217.2-943.8-281.2-1105.3c-77.9-192.1-239.5-359.2-389.8-398.1c-267.3-72.4-503.9,52.9-715.5,378.6c-350.8,540.1-637.6,999.5-632,1007.9c13.9,13.9,1681.7,167.1,1859.8,169.8C6209.1-755,6225.8-760.6,6225.8-810.7z" fill='#66bb6a'/><path d="M1097.3-782.9c-147.6-114.2-169.8-348-41.8-467.7c155.9-144.8,342.5-133.7,481.7,30.6c103,119.7,83.5,303.5-41.8,414.8C1386.9-707.7,1203.1-696.6,1097.3-782.9z" fill='#66bb6a'/></g></g>
</svg>
